<svg width="24" height="24" viewBox="0 0 24 24" fill="none" xmlns="http://www.w3.org/2000/svg">
<g clip-path="url(#clip0_1_6750)">
<path fill-rule="evenodd" clip-rule="evenodd" d="M15.2078 13.8798C14.8295 12.3401 13.8829 11.0005 12.5578 10.1298C11.2085 9.25832 9.57948 8.92965 7.99784 9.20982C6.44947 9.53118 5.03967 10.3269 3.96438 11.4864C2.88909 12.6459 2.20173 14.1116 1.99784 15.6798C1.8563 16.4596 1.87224 17.2599 2.04473 18.0334C2.21721 18.8069 2.54275 19.5381 3.00217 20.1839C3.46159 20.8297 4.0456 21.3771 4.71979 21.7937C5.39399 22.2103 6.14475 22.4878 6.92784 22.6098C7.40792 22.7119 7.89704 22.7655 8.38784 22.7698C8.87566 22.762 9.36144 22.7051 9.83784 22.5998C9.91141 22.5852 9.97646 22.5427 10.0194 22.4812C10.0622 22.4196 10.0796 22.3439 10.0678 22.2698C10.0489 22.1973 10.0035 22.1345 9.94056 22.0938C9.87763 22.0531 9.80175 22.0374 9.72784 22.0498C9.28927 22.1307 8.84373 22.1675 8.39784 22.1598C7.92651 22.1617 7.4566 22.108 6.99784 21.9998C6.32074 21.872 5.67586 21.6106 5.10084 21.231C4.52582 20.8513 4.03215 20.3609 3.64864 19.7885C3.26513 19.216 2.99946 18.5729 2.86712 17.8967C2.73478 17.2204 2.73842 16.5246 2.87784 15.8498C3.07391 14.4882 3.6899 13.2218 4.63994 12.2269C5.58999 11.2321 6.82674 10.5584 8.17784 10.2998C9.49512 10.0548 10.8563 10.315 11.9905 11.0284C13.1246 11.7419 13.9484 12.8563 14.2978 14.1498C14.6945 15.6282 14.6068 17.1948 14.0478 18.6198C13.8206 19.3317 13.3986 19.9657 12.8294 20.45C12.2603 20.9343 11.5669 21.2495 10.8278 21.3598C10.7439 21.3699 10.6669 21.4118 10.613 21.4769C10.559 21.5421 10.5321 21.6254 10.5378 21.7098C10.5416 21.7519 10.5537 21.7928 10.5733 21.8302C10.593 21.8677 10.6199 21.9008 10.6524 21.9278C10.6849 21.9547 10.7225 21.975 10.7629 21.9873C10.8033 21.9997 10.8458 22.0039 10.8878 21.9998C11.587 21.937 12.2608 21.7071 12.8525 21.3295C13.4442 20.9518 13.9365 20.4375 14.2878 19.8298C15.3576 18.042 15.6877 15.9073 15.2078 13.8798Z" fill="black"/>
<path fill-rule="evenodd" clip-rule="evenodd" d="M6.22984 17.9999C6.16824 17.9401 6.08573 17.9066 5.99984 17.9066C5.91394 17.9066 5.83143 17.9401 5.76984 17.9999C5.74355 18.0328 5.724 18.0704 5.71228 18.1108C5.70057 18.1512 5.69693 18.1935 5.70158 18.2353C5.70622 18.2771 5.71905 18.3176 5.73935 18.3544C5.75964 18.3912 5.78699 18.4237 5.81984 18.4499C6.41562 18.9621 7.17417 19.2457 7.95984 19.2499C8.07295 19.2599 8.18673 19.2599 8.29984 19.2499C8.29984 19.5799 8.36984 19.9099 8.39984 20.2499C8.40109 20.2929 8.41097 20.3351 8.42888 20.3741C8.4468 20.4131 8.47238 20.4481 8.5041 20.477C8.53582 20.506 8.57304 20.5282 8.61354 20.5425C8.65404 20.5567 8.69699 20.5626 8.73984 20.5599C8.82295 20.5548 8.90078 20.5174 8.95679 20.4558C9.01281 20.3942 9.0426 20.3132 9.03984 20.2299V19.1699C9.40934 19.0984 9.77103 18.9913 10.1198 18.8499C10.6685 18.6112 11.1248 18.2006 11.4198 17.6799C11.5396 17.4767 11.6142 17.2499 11.6383 17.0152C11.6625 16.7805 11.6357 16.5434 11.5598 16.3199C11.4342 16.0219 11.2339 15.7613 10.9781 15.5634C10.7223 15.3654 10.4198 15.2368 10.0998 15.1899C9.77098 15.1202 9.43599 15.0834 9.09984 15.0799V14.5299C9.09984 14.3499 9.09984 13.8999 9.04984 13.5899H9.30984C9.69984 13.5899 10.0798 13.6499 10.4598 13.6999C10.4966 13.7059 10.5342 13.7045 10.5704 13.6959C10.6066 13.6872 10.6408 13.6716 10.671 13.6498C10.7012 13.6279 10.7268 13.6004 10.7463 13.5687C10.7658 13.537 10.7789 13.5017 10.7848 13.4649C10.7907 13.4282 10.7894 13.3906 10.7807 13.3544C10.7721 13.3181 10.7565 13.284 10.7346 13.2538C10.7128 13.2236 10.6853 13.198 10.6536 13.1785C10.6219 13.1589 10.5866 13.1459 10.5498 13.1399C10.1598 13.0599 9.76984 12.9899 9.36984 12.9399H9.01984C9.01984 12.4599 8.96984 11.9399 8.95984 11.4899C8.96001 11.4164 8.93222 11.3455 8.88209 11.2916C8.83196 11.2378 8.76323 11.205 8.68984 11.1999C8.65225 11.1972 8.6145 11.2021 8.57885 11.2144C8.5432 11.2266 8.51039 11.2459 8.48237 11.2711C8.45436 11.2963 8.43173 11.3269 8.41583 11.3611C8.39993 11.3953 8.39109 11.4323 8.38984 11.4699L8.20984 12.9399C7.62225 13.0189 7.05339 13.2018 6.52984 13.4799C6.20153 13.6499 5.93548 13.9194 5.76984 14.2499C5.56984 14.6899 5.65984 15.2499 6.47984 15.7699C6.95034 16.0112 7.47112 16.1379 7.99984 16.1399H8.04984V17.1899C8.04984 17.5399 8.10984 18.0599 8.14984 18.4999H7.87984C7.28988 18.5188 6.71008 18.3431 6.22984 17.9999ZM7.04984 14.8899C6.83984 14.7699 6.68984 14.7199 6.68984 14.5999C6.68984 14.4799 6.83984 14.3399 7.00984 14.2199C7.37181 13.9804 7.77035 13.8014 8.18984 13.6899C8.18984 13.9699 8.18984 14.2599 8.11984 14.5399C8.04984 14.8199 8.11984 14.8899 8.11984 15.0699C7.75428 15.0893 7.38894 15.0279 7.04984 14.8899ZM9.13984 17.1799V16.1799C9.39166 16.1852 9.64257 16.212 9.88984 16.2599C10.0403 16.2739 10.1848 16.3251 10.3105 16.4089C10.4362 16.4927 10.5391 16.6065 10.6098 16.7399C10.6419 16.8524 10.6468 16.9708 10.6242 17.0856C10.6016 17.2003 10.5521 17.308 10.4798 17.3999C10.3091 17.673 10.067 17.8943 9.77984 18.0399C9.55131 18.142 9.31767 18.2321 9.07984 18.3099C9.11984 17.9299 9.12984 17.5599 9.13984 17.1799Z" fill="black"/>
<path fill-rule="evenodd" clip-rule="evenodd" d="M9.15862 7.1303C9.22248 7.15789 9.29451 7.15977 9.35971 7.13555C9.42492 7.11133 9.47826 7.06288 9.50862 7.0003C9.74929 6.30521 10.0574 5.63535 10.4286 5.0003C10.7921 4.39199 11.2834 3.86994 11.8686 3.4703C12.3832 3.12723 12.9415 2.8548 13.5286 2.6603C14.1151 2.46543 14.7227 2.34121 15.3386 2.2903C16.1865 2.19054 17.0459 2.28351 17.8528 2.56229C18.6597 2.84106 19.3932 3.29844 19.9986 3.9003C20.6005 4.51723 21.0732 5.24803 21.3892 6.04991C21.7051 6.85179 21.8579 7.70864 21.8386 8.5703C21.803 9.88435 21.363 11.1555 20.5786 12.2103C20.238 12.7541 19.7601 13.1985 19.1931 13.4987C18.626 13.7989 17.9898 13.9443 17.3486 13.9203C17.2652 13.9118 17.1819 13.9364 17.1164 13.9888C17.051 14.0411 17.0087 14.1171 16.9986 14.2003C16.99 14.2848 17.0143 14.3694 17.0664 14.4365C17.1186 14.5035 17.1946 14.5479 17.2786 14.5603C17.8891 14.6241 18.5061 14.5484 19.083 14.3388C19.6598 14.1291 20.1815 13.7911 20.6086 13.3503C21.9001 12.0876 22.68 10.3926 22.7986 8.5903C22.8524 7.5922 22.7028 6.59358 22.359 5.65502C22.0152 4.71646 21.4844 3.85752 20.7986 3.1303C20.0812 2.42041 19.2106 1.8845 18.2536 1.56378C17.2967 1.24306 16.2789 1.14608 15.2786 1.2803C14.5935 1.3729 13.9221 1.54749 13.2786 1.8003C12.6351 2.05504 12.0268 2.3911 11.4686 2.8003C10.9318 3.18519 10.4679 3.66265 10.0986 4.2103C9.61781 5.00993 9.24776 5.87112 8.99862 6.7703C8.97249 6.83928 8.97464 6.91579 9.0046 6.9832C9.03456 7.05061 9.08991 7.10347 9.15862 7.1303Z" fill="black"/>
<path fill-rule="evenodd" clip-rule="evenodd" d="M14.3595 10.1501C14.3777 10.1884 14.4033 10.2227 14.4348 10.251C14.4663 10.2793 14.5032 10.301 14.5432 10.315C14.5832 10.3289 14.6255 10.3348 14.6678 10.3323C14.7101 10.3297 14.7515 10.3188 14.7895 10.3001L15.5295 10.0601C15.8557 10.2878 16.2172 10.4601 16.5995 10.5701C16.8835 10.6252 17.1755 10.6252 17.4595 10.5701C17.8459 10.5054 18.2223 10.3911 18.5795 10.2301C18.6183 10.2137 18.6534 10.1899 18.683 10.1599C18.7125 10.1299 18.7358 10.0944 18.7516 10.0554C18.7674 10.0164 18.7754 9.97463 18.775 9.93255C18.7746 9.89046 18.766 9.84886 18.7495 9.81012C18.7352 9.77082 18.713 9.73484 18.6844 9.70433C18.6557 9.67382 18.6212 9.64942 18.5829 9.6326C18.5446 9.61579 18.5033 9.6069 18.4615 9.60647C18.4196 9.60604 18.3781 9.61409 18.3395 9.63012C18.0829 9.71671 17.8183 9.77702 17.5495 9.81012C17.3131 9.83417 17.0744 9.80688 16.8495 9.73012C16.7461 9.6943 16.6485 9.64378 16.5595 9.58012H16.6695C16.8418 9.48976 17.0087 9.3896 17.1695 9.28012C17.5595 9.01012 17.8995 8.72012 18.2795 8.46012C18.3146 8.44611 18.3465 8.42512 18.3733 8.39844C18.4001 8.37176 18.4212 8.33994 18.4353 8.30488C18.4495 8.26983 18.4564 8.23227 18.4556 8.19448C18.4549 8.15669 18.4465 8.11944 18.4309 8.08498C18.4154 8.05052 18.393 8.01956 18.3652 7.99398C18.3374 7.96839 18.3046 7.9487 18.269 7.9361C18.2334 7.9235 18.1955 7.91825 18.1578 7.92066C18.1201 7.92307 18.0833 7.93309 18.0495 7.95012C17.5193 8.07134 17.0006 8.23864 16.4995 8.45012C16.2221 8.58391 15.9547 8.73765 15.6995 8.91012C15.5225 8.70617 15.3714 8.48113 15.2495 8.24012C15.2452 8.1969 15.2452 8.15335 15.2495 8.11012C15.5357 8.03642 15.8163 7.94286 16.0895 7.83012C16.569 7.62177 17.0306 7.37427 17.4695 7.09012C17.5073 7.07983 17.5425 7.06173 17.5728 7.03699C17.6032 7.01225 17.628 6.98141 17.6457 6.94648C17.6634 6.91155 17.6736 6.8733 17.6755 6.83419C17.6775 6.79509 17.6713 6.756 17.6572 6.71946C17.6432 6.68291 17.6216 6.64972 17.5939 6.62203C17.5663 6.59433 17.5331 6.57275 17.4965 6.55868C17.46 6.54461 17.4209 6.53835 17.3818 6.54033C17.3427 6.5423 17.3044 6.55245 17.2695 6.57012C16.8395 6.65012 16.3995 6.68012 15.9495 6.78012C15.7588 6.81816 15.5715 6.87167 15.3895 6.94012L15.0695 7.07012C15.1077 6.78831 15.2218 6.52216 15.3995 6.30012C15.4992 6.16188 15.6132 6.03452 15.7395 5.92012C15.8727 5.80481 16.013 5.69794 16.1595 5.60012C16.3274 5.49272 16.509 5.40862 16.6995 5.35012C16.9011 5.28343 17.1088 5.23655 17.3195 5.21012C17.3563 5.20759 17.3922 5.19781 17.4253 5.18134C17.4583 5.16487 17.4877 5.14204 17.5119 5.11417C17.536 5.08629 17.5544 5.05391 17.566 5.01889C17.5777 4.98388 17.5822 4.94691 17.5795 4.91012C17.5784 4.87284 17.5695 4.8362 17.5535 4.80252C17.5375 4.76883 17.5147 4.73883 17.4865 4.7144C17.4583 4.68997 17.4253 4.67165 17.3897 4.66059C17.3541 4.64952 17.3166 4.64596 17.2795 4.65012C16.9839 4.64986 16.689 4.68002 16.3995 4.74012C16.1939 4.78865 15.9931 4.85559 15.7995 4.94012C15.6033 5.03529 15.4129 5.14215 15.2295 5.26012C15.0418 5.38929 14.8646 5.53307 14.6995 5.69012C14.4475 5.95431 14.2554 6.26973 14.1364 6.61486C14.0173 6.96 13.974 7.32675 14.0095 7.69012C13.8895 7.77012 13.7695 7.84012 13.6595 7.93012C13.6225 7.95089 13.59 7.97882 13.5639 8.01227C13.5377 8.04573 13.5185 8.08405 13.5074 8.125C13.4962 8.16594 13.4933 8.2087 13.4988 8.25079C13.5043 8.29287 13.5182 8.33344 13.5395 8.37012C13.5593 8.4068 13.5863 8.43911 13.6188 8.46512C13.6514 8.49113 13.6889 8.51031 13.729 8.52152C13.7691 8.53272 13.8111 8.53571 13.8525 8.53032C13.8938 8.52492 13.9336 8.51125 13.9695 8.49012L14.1795 8.42012C14.1795 8.53012 14.2595 8.63012 14.3095 8.74012C14.4596 9.02707 14.6517 9.28997 14.8795 9.52012C14.7595 9.60012 14.6595 9.68012 14.5395 9.75012C14.4657 9.78317 14.4066 9.84215 14.3734 9.91589C14.3402 9.98962 14.3353 10.073 14.3595 10.1501Z" fill="black"/>
<path fill-rule="evenodd" clip-rule="evenodd" d="M23.8706 17.6505L22.7706 16.9305L21.2906 16.0905L20.9106 15.8905C20.7972 15.8425 20.6716 15.8311 20.5515 15.858C20.4314 15.8849 20.3226 15.9487 20.2406 16.0405C20.0506 16.2905 19.8606 16.5305 19.6806 16.7805C19.5006 17.0305 19.1806 17.5405 18.9006 17.9005C18.6206 18.2605 18.5106 18.4005 18.2806 18.6505C18.2459 18.6739 18.2167 18.7046 18.195 18.7404C18.1733 18.7761 18.1596 18.8162 18.1549 18.8578C18.1501 18.8993 18.1544 18.9414 18.1675 18.9812C18.1805 19.0209 18.202 19.0574 18.2305 19.0881C18.259 19.1187 18.2937 19.1429 18.3324 19.1588C18.3711 19.1748 18.4128 19.1822 18.4546 19.1805C18.4964 19.1788 18.5373 19.1681 18.5746 19.1492C18.6119 19.1302 18.6446 19.1033 18.6706 19.0705C19.1396 18.7471 19.5842 18.3894 20.0006 18.0005C20.2406 17.7505 20.4806 17.4905 20.7106 17.2205C20.8792 18.2027 20.6644 19.2121 20.1106 20.0405C19.8894 20.387 19.6162 20.6973 19.3006 20.9605C19.0034 21.2257 18.6658 21.4418 18.3006 21.6005C17.8519 21.7919 17.3633 21.871 16.8771 21.8309C16.3909 21.7908 15.9219 21.6328 15.5106 21.3705C15.4804 21.3488 15.4462 21.3333 15.41 21.3249C15.3738 21.3164 15.3363 21.3152 15.2996 21.3212C15.2255 21.3334 15.1593 21.3745 15.1156 21.4355C15.0718 21.4965 15.0541 21.5724 15.0663 21.6465C15.0784 21.7205 15.1196 21.7867 15.1806 21.8305C15.6478 22.2396 16.2119 22.5224 16.8193 22.6519C17.4267 22.7814 18.0571 22.7534 18.6506 22.5705C19.1521 22.3881 19.6114 22.1057 20.0006 21.7405C20.4084 21.3972 20.7477 20.9799 21.0006 20.5105C21.5339 19.5145 21.6732 18.3544 21.3906 17.2605L22.3906 17.6705L23.5106 18.1805C23.5444 18.205 23.5829 18.2223 23.6236 18.2316C23.6643 18.2408 23.7065 18.2417 23.7476 18.2343C23.7887 18.2268 23.8279 18.2111 23.8627 18.1881C23.8976 18.1651 23.9275 18.1353 23.9506 18.1005C23.9979 18.0297 24.016 17.9433 24.0011 17.8594C23.9862 17.7755 23.9394 17.7007 23.8706 17.6505Z" fill="black"/>
<path fill-rule="evenodd" clip-rule="evenodd" d="M3.08899 10.0007C3.20209 10.0503 3.32806 10.0625 3.44857 10.0355C3.56907 10.0086 3.67783 9.94381 3.75899 9.85074C3.94899 9.60074 4.13899 9.36074 4.31899 9.11074C4.49899 8.86074 4.81899 8.36074 5.09899 7.99074C5.37899 7.62074 5.48899 7.49074 5.71899 7.24074C5.77034 7.18682 5.79899 7.11521 5.79899 7.04074C5.79899 6.96628 5.77034 6.89466 5.71899 6.84074C5.66236 6.79082 5.58947 6.76328 5.51399 6.76328C5.4385 6.76328 5.36561 6.79082 5.30899 6.84074C4.84637 7.19707 4.40868 7.58465 3.99899 8.00074C3.75899 8.24074 3.51899 8.51074 3.28899 8.77074C3.11992 7.79176 3.33483 6.78529 3.88899 5.96074C4.12189 5.59941 4.40852 5.27569 4.73899 5.00074C5.03651 4.73865 5.37413 4.52595 5.73899 4.37074C6.18689 4.17789 6.67506 4.09713 7.16121 4.13547C7.64737 4.1738 8.11684 4.33007 8.52899 4.59074C8.58999 4.6345 8.66587 4.65224 8.73995 4.64005C8.81403 4.62786 8.88023 4.58674 8.92399 4.52574C8.96775 4.46474 8.98549 4.38886 8.9733 4.31478C8.96111 4.2407 8.91999 4.1745 8.85899 4.13074C8.39642 3.72759 7.83873 3.449 7.23858 3.32127C6.63843 3.19354 6.01563 3.22089 5.42899 3.40074C4.90296 3.55774 4.41578 3.82348 3.99899 4.18074C3.59112 4.52406 3.25183 4.94139 2.99899 5.41074C2.46496 6.41011 2.32577 7.5736 2.60899 8.67074L1.60899 8.26074L0.498988 7.74074C0.429724 7.69398 0.344916 7.67617 0.262694 7.69112C0.180471 7.70607 0.107359 7.75259 0.0589881 7.82074C0.0106079 7.89038 -0.00911062 7.97597 0.00392273 8.05975C0.0169561 8.14354 0.061741 8.21909 0.128988 8.27074L1.22899 9.00074L2.70899 9.84074L3.08899 10.0007Z" fill="black"/>
</g>
<defs>
<clipPath id="clip0_1_6750">
<rect width="24" height="24" fill="white"/>
</clipPath>
</defs>
</svg>
