<svg width="24" height="24" viewBox="0 0 24 24" fill="none" xmlns="http://www.w3.org/2000/svg">
<g clip-path="url(#clip0_1_1373)">
<path fill-rule="evenodd" clip-rule="evenodd" d="M0.900925 5.18999C1.00083 5.18232 1.09394 5.1365 1.16097 5.06203C1.228 4.98755 1.26379 4.89014 1.26093 4.78999V2.57999C1.2803 2.238 1.3511 1.90088 1.47093 1.57999C1.47274 1.55335 1.47274 1.52662 1.47093 1.49999V1.57999C2.56034 1.29157 3.6841 1.15362 4.81093 1.16999C4.87468 1.18063 4.94002 1.17675 5.00208 1.15866C5.06413 1.14056 5.12131 1.10871 5.16936 1.06547C5.21741 1.02223 5.25509 0.968707 5.2796 0.908893C5.3041 0.84908 5.31481 0.78451 5.31093 0.719986C5.31366 0.607607 5.27228 0.498626 5.19564 0.416385C5.11901 0.334143 5.01322 0.285181 4.90093 0.279986C3.77144 0.0905805 2.62444 0.0268587 1.48093 0.0899861C1.23661 0.110152 1.00027 0.186537 0.790369 0.313173C0.580466 0.439808 0.402688 0.613264 0.270925 0.819986C0.0818002 1.25141 -0.0103667 1.71907 0.000925419 2.18999C0.0958895 3.08284 0.266502 3.96601 0.510925 4.82999C0.516107 4.92902 0.559794 5.0221 0.63266 5.08936C0.705526 5.15662 0.801799 5.19273 0.900925 5.18999Z" fill="black"/>
<path fill-rule="evenodd" clip-rule="evenodd" d="M4.87093 22.86C3.7441 22.8764 2.62034 22.7384 1.53093 22.45V22.53C1.53274 22.5034 1.53274 22.4766 1.53093 22.45C1.4111 22.1291 1.3403 21.792 1.32093 21.45V19.24C1.32379 19.1398 1.288 19.0424 1.22097 18.9679C1.15394 18.8935 1.06083 18.8477 0.960925 18.84C0.861799 18.8372 0.765526 18.8734 0.69266 18.9406C0.619794 19.0079 0.576107 19.101 0.570925 19.2C0.30786 20.0524 0.117184 20.9255 0.000925419 21.81C-0.0103667 22.2809 0.0818002 22.7486 0.270925 23.18C0.402688 23.3867 0.580466 23.5602 0.790369 23.6868C1.00027 23.8134 1.23661 23.8898 1.48093 23.91C2.62444 23.9731 3.77144 23.9094 4.90093 23.72C5.01497 23.72 5.12434 23.6747 5.20498 23.594C5.28562 23.5134 5.33093 23.404 5.33093 23.29C5.33093 23.1759 5.28562 23.0666 5.20498 22.9859C5.12434 22.9053 5.01497 22.86 4.90093 22.86H4.87093Z" fill="black"/>
<path fill-rule="evenodd" clip-rule="evenodd" d="M19.1315 1.13999C20.2584 1.12362 21.3821 1.26157 22.4715 1.54999V1.46999C22.4697 1.49662 22.4697 1.52335 22.4715 1.54999C22.4715 1.54999 22.5215 1.54999 22.4715 1.54999C22.5994 1.86893 22.6738 2.20681 22.6915 2.54999V4.75999C22.6887 4.86014 22.7245 4.95755 22.7915 5.03203C22.8585 5.1065 22.9516 5.15232 23.0515 5.15999C23.1507 5.16273 23.2469 5.12662 23.3198 5.05936C23.3927 4.9921 23.4364 4.89902 23.4415 4.79999C23.7012 3.94727 23.8885 3.07418 24.0015 2.18999C24.0128 1.71907 23.9207 1.25141 23.7315 0.819986C23.5998 0.613264 23.422 0.439808 23.2121 0.313173C23.0022 0.186537 22.7658 0.110152 22.5215 0.0899861C21.378 0.0268587 20.231 0.0905805 19.1015 0.279986C18.9892 0.285181 18.8834 0.334143 18.8068 0.416385C18.7302 0.498626 18.6888 0.607607 18.6915 0.719986C18.6928 0.776459 18.7052 0.832123 18.7281 0.883798C18.7509 0.935472 18.7837 0.982144 18.8245 1.02115C18.8654 1.06015 18.9135 1.09072 18.9662 1.11111C19.0189 1.1315 19.0751 1.14131 19.1315 1.13999Z" fill="black"/>
<path fill-rule="evenodd" clip-rule="evenodd" d="M23.1 18.8097C23.0001 18.8174 22.907 18.8632 22.84 18.9377C22.7729 19.0121 22.7371 19.1096 22.74 19.2097V21.4197C22.7222 21.7629 22.6479 22.1008 22.52 22.4197C22.5182 22.4464 22.5182 22.4731 22.52 22.4997V22.4197C21.4306 22.7081 20.3068 22.8461 19.18 22.8297C19.066 22.8297 18.9566 22.875 18.8759 22.9557C18.7953 23.0363 18.75 23.1457 18.75 23.2597C18.75 23.3738 18.7953 23.4831 18.8759 23.5638C18.9566 23.6444 19.066 23.6897 19.18 23.6897C20.3095 23.8791 21.4565 23.9428 22.6 23.8797C22.8443 23.8595 23.0807 23.7832 23.2906 23.6565C23.5005 23.5299 23.6782 23.3564 23.81 23.1497C23.9675 22.7216 24.0323 22.2648 24 21.8097C23.905 20.9169 23.7344 20.0337 23.49 19.1697C23.4848 19.0707 23.4411 18.9776 23.3683 18.9103C23.2954 18.8431 23.1991 18.807 23.1 18.8097Z" fill="black"/>
<path fill-rule="evenodd" clip-rule="evenodd" d="M7.60061 6.81037L8.36061 7.28037C8.40057 7.32059 8.44809 7.3525 8.50044 7.37428C8.55278 7.39605 8.60892 7.40727 8.66561 7.40727C8.7223 7.40727 8.77844 7.39605 8.83078 7.37428C8.88313 7.3525 8.93065 7.32059 8.97061 7.28037C9.01052 7.24127 9.04223 7.19459 9.06388 7.14308C9.08552 7.09157 9.09667 7.03625 9.09667 6.98037C9.09667 6.9245 9.08552 6.86918 9.06388 6.81767C9.04223 6.76616 9.01052 6.71948 8.97061 6.68037L8.23061 5.90037C7.90609 5.59408 7.53041 5.34701 7.12061 5.17037C6.87062 5.05807 6.59967 5 6.32561 5C6.05155 5 5.7806 5.05807 5.53061 5.17037C5.27069 5.29997 5.03681 5.47623 4.84061 5.69037C4.46648 6.11225 4.13175 6.56748 3.84061 7.05037C3.77593 7.1235 3.74023 7.21775 3.74023 7.31537C3.74023 7.413 3.77593 7.50725 3.84061 7.58037C3.91323 7.65005 4.00997 7.68895 4.11061 7.68895C4.21125 7.68895 4.30799 7.65005 4.38061 7.58037C4.87895 7.13023 5.45499 6.77445 6.08061 6.53037C6.28612 6.46895 6.5051 6.46895 6.71061 6.53037C7.01876 6.58224 7.31827 6.67647 7.60061 6.81037Z" fill="black"/>
<path fill-rule="evenodd" clip-rule="evenodd" d="M20.0003 7.31951C20.0769 7.23641 20.1194 7.12753 20.1194 7.01451C20.1194 6.90149 20.0769 6.79261 20.0003 6.70951L19.2603 5.93951C18.9366 5.63222 18.5607 5.38503 18.1503 5.20951C17.9007 5.10221 17.6319 5.04688 17.3603 5.04688C17.0886 5.04688 16.8198 5.10221 16.5703 5.20951C16.3057 5.3362 16.068 5.51276 15.8703 5.72951C15.4985 6.15327 15.1639 6.60829 14.8703 7.08951C14.8006 7.16213 14.7617 7.25888 14.7617 7.35951C14.7617 7.46015 14.8006 7.55689 14.8703 7.62951C14.9048 7.66489 14.946 7.69301 14.9915 7.71221C15.037 7.73141 15.0859 7.7413 15.1353 7.7413C15.1847 7.7413 15.2336 7.73141 15.2791 7.71221C15.3246 7.69301 15.3658 7.66489 15.4003 7.62951C15.8983 7.17879 16.4699 6.81687 17.0903 6.55951C17.2993 6.4984 17.5213 6.4984 17.7303 6.55951C18.038 6.62301 18.3369 6.72375 18.6203 6.85951L19.3803 7.33951C19.4653 7.41874 19.5783 7.4611 19.6944 7.45736C19.8106 7.45361 19.9205 7.40405 20.0003 7.31951Z" fill="black"/>
<path fill-rule="evenodd" clip-rule="evenodd" d="M11.5315 13.6297C11.6882 13.8062 11.8786 13.9495 12.0915 14.0513C12.3044 14.1531 12.5355 14.2114 12.7712 14.2225C13.007 14.2337 13.2426 14.1976 13.4641 14.1164C13.6857 14.0352 13.8888 13.9105 14.0615 13.7497C14.259 13.6174 14.4462 13.4703 14.6215 13.3097C14.7916 13.153 14.9519 12.986 15.1015 12.8097C15.1774 12.7282 15.2196 12.621 15.2196 12.5097C15.2196 12.3983 15.1774 12.2911 15.1015 12.2097C15.0212 12.1315 14.9136 12.0878 14.8015 12.0878C14.6894 12.0878 14.5818 12.1315 14.5015 12.2097C14.3607 12.3438 14.2103 12.4675 14.0515 12.5797C13.9023 12.6904 13.7414 12.7843 13.5715 12.8597C13.4481 12.9382 13.3101 12.9911 13.1658 13.0151C13.0214 13.0392 12.8738 13.0339 12.7315 12.9997C12.5115 12.9197 12.4415 12.6697 12.3415 12.3997C12.1904 11.8385 12.1098 11.2608 12.1015 10.6797V8.80969V7.73969C12.1515 7.26969 12.1815 6.83969 12.2415 6.41969C12.2764 6.13649 12.3299 5.85589 12.4015 5.57969C12.4333 5.48554 12.4265 5.3826 12.3824 5.29352C12.3383 5.20444 12.2607 5.13652 12.1665 5.10469C12.0724 5.07287 11.9694 5.07975 11.8803 5.12382C11.7913 5.16789 11.7233 5.24554 11.6915 5.33969L11.0015 7.53969L10.7515 8.68969C10.6088 9.65327 10.5886 10.6311 10.6915 11.5997C10.7655 12.3443 11.0578 13.0505 11.5315 13.6297Z" fill="black"/>
<path fill-rule="evenodd" clip-rule="evenodd" d="M16.7518 15.4497C16.6364 15.6392 16.5024 15.8167 16.3518 15.9797C16.0931 16.2389 15.8193 16.4827 15.5318 16.7097C15.2861 16.914 15.029 17.1043 14.7618 17.2797C14.5214 17.4482 14.2589 17.5828 13.9818 17.6797C13.073 18.022 12.0707 18.022 11.1618 17.6797C9.64122 17.1285 8.24448 16.2823 7.05183 15.1897C6.98089 15.1207 6.88581 15.082 6.78683 15.082C6.68785 15.082 6.59277 15.1207 6.52183 15.1897C6.45506 15.2618 6.41797 15.3564 6.41797 15.4547C6.41797 15.5529 6.45506 15.6476 6.52183 15.7197C7.63968 17.1272 9.07111 18.2538 10.7018 19.0097C11.3174 19.2388 11.9729 19.3419 12.6291 19.3127C13.2853 19.2835 13.929 19.1226 14.5218 18.8397C14.7989 18.6957 15.0631 18.5284 15.3118 18.3397C15.6465 18.0664 15.9607 17.769 16.2518 17.4497C16.5431 17.163 16.817 16.8592 17.0718 16.5397C17.256 16.3046 17.4074 16.0455 17.5218 15.7697C17.5694 15.6662 17.5741 15.5481 17.5347 15.4413C17.4953 15.3344 17.4152 15.2475 17.3118 15.1997C17.259 15.1758 17.2018 15.1634 17.1438 15.1632C17.0859 15.1631 17.0286 15.1752 16.9756 15.1988C16.9227 15.2224 16.8754 15.257 16.8368 15.3003C16.7983 15.3435 16.7693 15.3944 16.7518 15.4497Z" fill="black"/>
</g>
<defs>
<clipPath id="clip0_1_1373">
<rect width="24" height="24" fill="white"/>
</clipPath>
</defs>
</svg>
