<svg width="24" height="24" viewBox="0 0 24 24" fill="none" xmlns="http://www.w3.org/2000/svg">
<g clip-path="url(#clip0_1_8133)">
<path fill-rule="evenodd" clip-rule="evenodd" d="M7.19874 16.3204C6.25874 16.2704 4.72874 16.3204 4.09874 16.3204C3.46874 16.3204 2.84874 16.2004 2.18874 16.2104C1.72607 16.1967 1.2658 16.2819 0.838742 16.4604C0.766146 16.4913 0.708647 16.5496 0.678699 16.6226C0.648752 16.6956 0.648767 16.7774 0.678742 16.8504C0.71353 16.9221 0.773807 16.9782 0.847784 17.0078C0.921761 17.0374 1.00412 17.0383 1.07874 17.0104C1.43574 16.8904 1.81311 16.8428 2.18874 16.8704C2.82874 16.8704 3.48874 17.0304 4.02874 17.1004C4.56874 17.1704 5.81874 17.1904 6.75874 17.2704C7.69874 17.3504 7.66874 17.0804 7.52874 17.8704C7.4517 18.2528 7.35151 18.6302 7.22874 19.0004L6.65874 21.4904C6.65874 21.6704 6.54874 21.9904 6.44874 22.3004C6.34874 22.6104 6.35874 22.6804 6.24874 22.7504C5.8156 22.8872 5.36283 22.9514 4.90874 22.9404C4.27669 22.9975 3.64079 22.9975 3.00874 22.9404C2.91874 22.9404 2.82874 22.8704 2.77874 22.8804C2.41199 22.282 2.14832 21.6262 1.99874 20.9404C1.69874 19.8104 1.56874 18.6004 1.37874 17.4604C1.37587 17.4134 1.36324 17.3674 1.34165 17.3255C1.32007 17.2836 1.29001 17.2466 1.25338 17.217C1.21674 17.1873 1.17434 17.1656 1.12886 17.1531C1.08338 17.1407 1.03581 17.1379 0.989185 17.1449C0.942559 17.1518 0.897889 17.1684 0.858013 17.1936C0.818137 17.2187 0.783927 17.2519 0.757554 17.291C0.731182 17.33 0.713224 17.3742 0.70482 17.4206C0.696417 17.4669 0.697753 17.5146 0.708742 17.5604C0.848742 18.7304 0.918742 19.9704 1.16874 21.1404C1.3389 21.9768 1.65725 22.7761 2.10874 23.5004C2.20393 23.6237 2.33227 23.7174 2.47874 23.7704C3.00315 23.9167 3.54437 23.994 4.08874 24.0004C5.0348 24.0815 5.98745 23.9692 6.88874 23.6704C7.11002 23.506 7.28277 23.2849 7.38874 23.0304C7.55248 22.6225 7.67965 22.2008 7.76874 21.7704L8.29874 19.3004C8.47326 18.7516 8.58399 18.1846 8.62874 17.6104C8.6491 17.4172 8.62449 17.2219 8.55683 17.0397C8.48918 16.8576 8.38031 16.6935 8.23874 16.5604C7.91732 16.3955 7.55994 16.313 7.19874 16.3204Z" fill="black"/>
<path fill-rule="evenodd" clip-rule="evenodd" d="M23.1977 12.5402C23.1015 11.279 22.5508 10.0957 21.6477 9.21016C21.0393 8.72731 20.3017 8.43507 19.5277 8.37016C18.5284 8.31672 17.527 8.31672 16.5277 8.37016H10.6477C9.33772 8.37016 8.01772 8.45016 6.70772 8.56016C6.17348 8.56442 5.64815 8.69755 5.17636 8.94825C4.70457 9.19894 4.30024 9.55979 3.99772 10.0002C3.78725 10.3564 3.70521 10.774 3.76526 11.1835C3.8253 11.5929 4.02382 11.9693 4.32772 12.2502C5.29001 12.9938 6.49572 13.3506 7.70772 13.2502C9.30772 13.2502 11.1277 13.1002 12.3577 13.5402C12.6144 13.6142 12.848 13.7521 13.0369 13.941C13.2258 14.1299 13.3637 14.3635 13.4377 14.6202C13.6737 15.4225 13.8278 16.2467 13.8977 17.0802C13.959 17.9224 13.959 18.7679 13.8977 19.6102C13.8977 20.0602 13.8177 21.0102 13.7877 21.9202V23.4802C13.7877 23.5703 13.8235 23.6568 13.8873 23.7206C13.9511 23.7843 14.0376 23.8202 14.1277 23.8202C14.2179 23.8202 14.3044 23.7843 14.3681 23.7206C14.4319 23.6568 14.4677 23.5703 14.4677 23.4802V21.9602C14.5177 21.0602 14.5877 20.1202 14.6177 19.6702C14.6811 18.7913 14.6811 17.909 14.6177 17.0302C14.5589 16.1443 14.4115 15.2666 14.1777 14.4102C14.0778 14.0156 13.8796 13.6527 13.6016 13.3555C13.3235 13.0582 12.9747 12.8362 12.5877 12.7102C11.2977 12.2202 9.35772 12.3402 7.65772 12.2602C6.71348 12.3474 5.77018 12.084 5.00772 11.5202C4.92188 11.4424 4.85327 11.3474 4.80632 11.2415C4.75936 11.1356 4.73511 11.021 4.73511 10.9052C4.73511 10.7893 4.75936 10.6747 4.80632 10.5688C4.85327 10.4629 4.92188 10.368 5.00772 10.2902C5.45724 9.88011 6.03948 9.6458 6.64772 9.63016C7.93772 9.53016 9.22773 9.49016 10.5177 9.47016H16.3777C17.3469 9.41483 18.3185 9.41483 19.2877 9.47016C19.8465 9.50198 20.3829 9.70052 20.8277 10.0402C21.5985 10.7262 22.0868 11.6743 22.1977 12.7002C22.3855 14.3598 22.449 16.0311 22.3877 17.7002C22.3781 18.3007 22.2454 18.8929 21.9977 19.4402C21.8377 19.7602 21.6377 20.0402 21.3477 20.0602C21.1622 20.0844 20.9736 20.0638 20.7977 20.0002C20.641 19.931 20.5061 19.8204 20.4077 19.6802C20.18 19.3188 20.046 18.9064 20.0177 18.4802C19.8877 17.3302 19.7577 16.2502 19.6677 15.1202C19.6177 14.4002 19.5677 13.6602 19.5477 12.8802C19.5491 12.8404 19.5423 12.8007 19.5277 12.7637C19.5132 12.7267 19.4911 12.6931 19.463 12.6649C19.4348 12.6368 19.4012 12.6147 19.3642 12.6001C19.3271 12.5856 19.2875 12.5788 19.2477 12.5802C19.2075 12.5801 19.1676 12.5882 19.1306 12.6039C19.0935 12.6196 19.06 12.6426 19.032 12.6715C19.004 12.7005 18.9821 12.7347 18.9676 12.7723C18.9531 12.8098 18.9464 12.8499 18.9477 12.8902C18.9477 13.6802 18.9477 14.4302 19.0277 15.1602C19.0877 16.3102 19.1977 17.4002 19.2977 18.5502C19.3197 19.2213 19.5662 19.8657 19.9977 20.3802C20.1185 20.4902 20.253 20.5843 20.3977 20.6602C20.3477 20.8902 20.2877 21.1402 20.2477 21.4502C20.2375 21.6167 20.2375 21.7836 20.2477 21.9502V22.4502C20.2977 22.9102 20.3877 23.3202 20.4277 23.6102C20.4277 23.7013 20.4632 23.7888 20.5267 23.8542C20.5902 23.9195 20.6766 23.9576 20.7677 23.9602C20.8562 23.9602 20.9412 23.9257 21.0047 23.8641C21.0682 23.8025 21.1051 23.7186 21.1077 23.6302C21.1973 23.2406 21.2674 22.8467 21.3177 22.4502C21.3282 22.2837 21.3282 22.1167 21.3177 21.9502C21.333 21.7838 21.333 21.6165 21.3177 21.4502C21.2944 21.2512 21.2577 21.0541 21.2077 20.8602H21.3477C21.6404 20.8257 21.919 20.7152 22.1558 20.5398C22.3926 20.3644 22.5794 20.1301 22.6977 19.8602C23.0385 19.1922 23.2329 18.4592 23.2677 17.7102C23.3753 15.9875 23.3519 14.2592 23.1977 12.5402Z" fill="black"/>
<path fill-rule="evenodd" clip-rule="evenodd" d="M15.6872 7.25037C16.8785 7.45774 18.1043 7.21541 19.1272 6.57037C19.6556 6.23592 20.0763 5.75611 20.3388 5.1885C20.6013 4.6209 20.6945 3.98961 20.6072 3.37037C20.5233 2.86731 20.3371 2.38679 20.0602 1.95852C19.7833 1.53024 19.4215 1.1633 18.9972 0.880373C18.6987 0.659911 18.3471 0.522483 17.9782 0.482081C17.6093 0.44168 17.2363 0.499748 16.8972 0.650373C16.855 0.66554 16.8165 0.689396 16.7841 0.720396C16.7517 0.751397 16.7262 0.78885 16.7093 0.83033C16.6923 0.87181 16.6842 0.916393 16.6856 0.961189C16.6869 1.00599 16.6977 1.05 16.7172 1.09037C16.7524 1.17192 16.8182 1.23641 16.9005 1.27005C16.9827 1.3037 17.0748 1.30381 17.1572 1.27037C17.4542 1.18585 17.7693 1.18801 18.0651 1.2766C18.361 1.36518 18.6254 1.53651 18.8272 1.77037C19.3003 2.21347 19.6044 2.80747 19.6872 3.45037C19.7213 3.8892 19.6305 4.32874 19.4252 4.71809C19.2199 5.10744 18.9086 5.43068 18.5272 5.65037C17.7291 6.12074 16.7883 6.28761 15.8772 6.12037C15.5378 6.07011 15.2122 5.95136 14.9202 5.77133C14.6281 5.59131 14.3757 5.35377 14.1784 5.07316C13.981 4.79255 13.8428 4.47473 13.7721 4.13902C13.7014 3.80332 13.6997 3.45675 13.7672 3.12037C13.772 2.76452 13.8527 2.41379 14.004 2.09165C14.1553 1.76951 14.3736 1.48338 14.6443 1.25239C14.9151 1.02141 15.232 0.850888 15.574 0.752241C15.9159 0.653595 16.275 0.629092 16.6272 0.680373C16.6666 0.690716 16.7077 0.692911 16.748 0.686824C16.7884 0.680737 16.827 0.666496 16.8616 0.644971C16.8963 0.623446 16.9261 0.595089 16.9494 0.561631C16.9727 0.528173 16.989 0.490316 16.9972 0.450373C17.012 0.370923 16.9952 0.288826 16.9503 0.22158C16.9055 0.154333 16.8362 0.107253 16.7572 0.0903733C14.5972 -0.409627 13.1572 1.20037 12.8572 3.01037C12.754 3.47534 12.7461 3.95637 12.8338 4.42449C12.9215 4.89261 13.103 5.33815 13.3674 5.73428C13.6318 6.13041 13.9736 6.46894 14.3723 6.72949C14.7709 6.99004 15.2182 7.16722 15.6872 7.25037Z" fill="black"/>
<path fill-rule="evenodd" clip-rule="evenodd" d="M3.56977 13.6803C3.48046 13.37 3.28589 13.1004 3.01946 12.9179C2.75304 12.7355 2.4314 12.6514 2.10977 12.6803C2.07208 12.6632 2.03117 12.6543 1.98977 12.6543C1.94837 12.6543 1.90746 12.6632 1.86977 12.6803C1.59788 12.8052 1.35062 12.978 1.13977 13.1903C0.930786 13.4103 0.806744 13.6973 0.789771 14.0003C0.783399 14.1778 0.820092 14.3541 0.896715 14.5144C0.973338 14.6746 1.08761 14.8138 1.22977 14.9203C1.41468 15.0589 1.62966 15.152 1.85727 15.1919C2.08488 15.2319 2.31871 15.2176 2.53977 15.1503C2.70508 15.1238 2.86339 15.0644 3.0053 14.9756C3.14721 14.8868 3.26984 14.7704 3.36591 14.6333C3.46198 14.4962 3.52952 14.3412 3.56454 14.1775C3.59956 14.0138 3.60134 13.8447 3.56977 13.6803ZM2.23977 14.4503C2.17855 14.4782 2.11205 14.4927 2.04477 14.4927C1.97749 14.4927 1.91099 14.4782 1.84977 14.4503C1.77208 14.4032 1.70752 14.3373 1.66207 14.2586C1.61663 14.18 1.59176 14.0911 1.58977 14.0003C1.55736 13.825 1.58932 13.6439 1.67977 13.4903C1.77152 13.3697 1.87916 13.262 1.99977 13.1703C2.18314 13.1529 2.36619 13.2065 2.51128 13.3199C2.65637 13.4334 2.75245 13.5981 2.77977 13.7803C2.7966 13.9407 2.74924 14.1012 2.64804 14.2267C2.54685 14.3523 2.40006 14.4327 2.23977 14.4503Z" fill="black"/>
</g>
<defs>
<clipPath id="clip0_1_8133">
<rect width="24" height="24" fill="white"/>
</clipPath>
</defs>
</svg>
