<svg width="24" height="24" viewBox="0 0 24 24" fill="none" xmlns="http://www.w3.org/2000/svg">
<g clip-path="url(#clip0_1_5213)">
<path d="M20.5197 19.3099C19.9014 18.9793 19.2194 18.7849 18.5197 18.7399C18.2689 18.7043 18.0236 18.6371 17.7897 18.5399C17.7138 18.5145 17.6452 18.4713 17.5895 18.4139C17.5338 18.3564 17.4927 18.2865 17.4697 18.2099C17.3097 17.6299 17.7097 17.3199 18.2197 17.2099C18.865 17.0887 19.5308 17.1405 20.1497 17.3599C20.2161 17.391 20.292 17.3948 20.3612 17.3705C20.4304 17.3462 20.4873 17.2957 20.5197 17.2299C20.5363 17.1959 20.5459 17.1589 20.5478 17.1211C20.5498 17.0833 20.544 17.0455 20.5309 17.01C20.5179 16.9745 20.4977 16.942 20.4717 16.9145C20.4457 16.8869 20.4144 16.865 20.3797 16.8499C20.0481 16.688 19.6942 16.5768 19.3297 16.5199C19.3602 16.4721 19.387 16.4219 19.4097 16.3699C19.4455 16.2795 19.4723 16.1857 19.4897 16.0899C19.4946 15.9933 19.4946 15.8965 19.4897 15.7999V15.1199C19.5 15.0785 19.502 15.0355 19.4955 14.9933C19.489 14.9511 19.4742 14.9107 19.4518 14.8744C19.4295 14.838 19.4 14.8065 19.3653 14.7817C19.3306 14.7569 19.2913 14.7393 19.2497 14.7299C19.209 14.7194 19.1666 14.717 19.1249 14.7229C19.0833 14.7287 19.0432 14.7427 19.007 14.7641C18.9708 14.7855 18.9391 14.8137 18.9138 14.8473C18.8886 14.8809 18.8702 14.9192 18.8597 14.9599C18.7359 15.1659 18.6257 15.3797 18.5297 15.5999C18.4906 15.6935 18.4605 15.7906 18.4397 15.8899C18.4303 15.9864 18.4303 16.0835 18.4397 16.1799C18.4342 16.2698 18.4342 16.36 18.4397 16.4499C18.158 16.4508 17.8781 16.4946 17.6097 16.5799C17.4179 16.631 17.238 16.7194 17.0804 16.84C16.9228 16.9607 16.7905 17.1112 16.6911 17.2831C16.5917 17.4549 16.5272 17.6446 16.5012 17.8414C16.4752 18.0382 16.4883 18.2382 16.5397 18.4299C16.5865 18.6458 16.682 18.8481 16.8189 19.0214C16.9558 19.1947 17.1305 19.3344 17.3297 19.4299C17.9386 19.6764 18.5775 19.8412 19.2297 19.9199C19.6397 20.0099 20.0497 20.0699 20.0697 20.5099C20.0897 20.9499 19.6397 21.2599 19.0697 21.3899C18.4598 21.5457 17.8182 21.5249 17.2197 21.3299C17.0511 21.2611 16.8981 21.159 16.7697 21.0299C16.6289 20.8744 16.5018 20.7072 16.3897 20.5299C16.3425 20.4578 16.2691 20.407 16.185 20.3883C16.1009 20.3696 16.0129 20.3846 15.9397 20.4299C15.9033 20.4514 15.8716 20.48 15.8467 20.5141C15.8218 20.5483 15.8041 20.5871 15.7947 20.6283C15.7853 20.6695 15.7845 20.7122 15.7922 20.7538C15.8 20.7953 15.8161 20.8348 15.8397 20.8699C15.9876 21.1359 16.1654 21.3842 16.3697 21.6099C16.5561 21.7746 16.7691 21.9065 16.9997 21.9999C17.1954 22.0927 17.3997 22.1664 17.6097 22.2199V22.3099C17.5771 22.4015 17.5504 22.495 17.5297 22.5899C17.5247 22.6832 17.5247 22.7767 17.5297 22.8699V23.5599C17.5191 23.6006 17.5167 23.643 17.5226 23.6847C17.5285 23.7263 17.5425 23.7664 17.5638 23.8026C17.5852 23.8388 17.6135 23.8705 17.6471 23.8957C17.6807 23.921 17.719 23.9394 17.7597 23.9499C17.8011 23.9603 17.8441 23.9623 17.8863 23.9558C17.9284 23.9493 17.9689 23.9344 18.0052 23.9121C18.0416 23.8897 18.0731 23.8603 18.0979 23.8256C18.1227 23.7909 18.1403 23.7515 18.1497 23.7099C18.2769 23.5043 18.3905 23.2905 18.4897 23.0699C18.5223 22.9784 18.549 22.8849 18.5697 22.7899C18.5795 22.6902 18.5795 22.5897 18.5697 22.4899C18.5745 22.4334 18.5745 22.3765 18.5697 22.3199C18.9958 22.3396 19.422 22.2855 19.8297 22.1599C20.2158 22.0749 20.5609 21.8594 20.8067 21.5498C21.0526 21.2402 21.1843 20.8553 21.1797 20.4599C21.1724 20.2288 21.1084 20.003 20.9933 19.8025C20.8782 19.602 20.7155 19.4328 20.5197 19.3099Z" fill="black"/>
<path d="M14.29 20.77C14.29 20.77 10.82 20.93 7.82995 20.87C6.70458 20.8689 5.58107 20.7786 4.46995 20.6C4.29885 20.5617 4.13152 20.5082 3.96995 20.44C3.20674 18.8174 2.82044 17.0431 2.83995 15.25C2.68995 12.14 2.99995 8.77003 3.06995 6.87003C3.04315 5.83933 3.06985 4.80795 3.14995 3.78003C3.20986 3.16703 3.42307 2.57897 3.76995 2.07003C4.03617 1.69351 4.41396 1.41017 4.84995 1.26003H4.93995C4.91699 1.671 4.9371 2.08324 4.99995 2.49003C5.06002 2.789 5.18271 3.07187 5.35995 3.32003C5.48809 3.47272 5.6534 3.58982 5.83995 3.66003C6.14429 3.76358 6.45982 3.83072 6.77995 3.86003C7.71995 3.98003 12.19 3.64003 12.25 3.63003C12.6229 3.57076 12.9704 3.40394 13.25 3.15003C13.4469 2.91502 13.5872 2.63788 13.66 2.34003C13.7677 1.89926 13.8446 1.4515 13.89 1.00003C14.4679 1.02167 15.0342 1.16838 15.55 1.43003C15.8116 1.70091 15.9708 2.05452 16 2.43003C16.0888 3.11047 16.0888 3.79958 16 4.48003C15.9942 4.56441 16.0211 4.64778 16.0751 4.71291C16.1291 4.77804 16.206 4.81997 16.29 4.83003C16.3755 4.83597 16.4601 4.80939 16.5268 4.75562C16.5936 4.70185 16.6376 4.62484 16.65 4.54003C16.7529 3.67385 16.7226 2.79701 16.56 1.94003C16.5104 1.5068 16.3125 1.10405 16 0.800025C15.1624 0.373545 14.2396 0.14113 13.3 0.120025C11.2 -0.0699745 8.51995 2.54726e-05 7.14995 2.54726e-05C6.26482 -0.0259947 5.38099 0.0853266 4.52995 0.330025C3.92053 0.544057 3.38815 0.933777 2.99995 1.45003C2.53861 2.09315 2.24944 2.84361 2.15995 3.63003C2.0489 4.69637 1.99549 5.76793 1.99995 6.84003C1.79137 9.65823 1.72795 12.4853 1.80995 15.31C1.84561 17.2668 2.33876 19.188 3.24995 20.92C3.39146 21.1271 3.60562 21.2734 3.84995 21.33C4.44253 21.4768 5.04959 21.5573 5.65995 21.57C8.79995 21.75 14.33 21.34 14.33 21.34C14.3672 21.3389 14.4039 21.33 14.4376 21.314C14.4712 21.298 14.5012 21.2752 14.5257 21.247C14.5501 21.2188 14.5684 21.1859 14.5795 21.1502C14.5906 21.1146 14.5941 21.0771 14.59 21.04C14.5902 21.0019 14.5823 20.9641 14.5669 20.9293C14.5515 20.8944 14.5289 20.8632 14.5006 20.8377C14.4722 20.8122 14.4388 20.7929 14.4025 20.7813C14.3662 20.7696 14.3278 20.7658 14.29 20.77ZM7.16995 1.00003C8.52995 1.00003 11.17 0.790025 13.17 0.930025C13.11 1.24003 13.06 1.61003 12.97 1.93003C12.928 2.16006 12.8243 2.37437 12.67 2.55003C12.424 2.69906 12.1357 2.76236 11.85 2.73003C6.59995 2.84003 7.74995 2.95003 6.84995 2.91003H6.29995C6.18802 2.90232 6.08212 2.85643 5.99995 2.78003C5.82857 2.58349 5.71139 2.34567 5.65995 2.09003C5.58871 1.75981 5.5353 1.42599 5.49995 1.09003C6.05399 1.02278 6.6119 0.992711 7.16995 1.00003Z" fill="black"/>
<path d="M11.2603 13.8398C11.3661 13.7929 11.4588 13.7208 11.5303 13.6298C11.7571 13.3444 11.8867 12.9941 11.9003 12.6298C11.8968 12.0136 11.8467 11.3985 11.7503 10.7898C11.7503 10.3598 11.6903 9.91982 11.6503 9.47982C11.6267 9.1707 11.5833 8.8634 11.5203 8.55982C11.4886 8.33841 11.435 8.12068 11.3603 7.90982C11.3289 7.80332 11.2703 7.70683 11.1903 7.62982C10.9768 7.43347 10.7079 7.30776 10.4203 7.26982C10.254 7.25475 10.0867 7.25475 9.92035 7.26982C9.96189 7.05861 9.98862 6.84476 10.0003 6.62982V6.27982C10.01 6.16336 10.01 6.04629 10.0003 5.92982C9.94035 5.64982 9.83035 5.41982 9.75035 5.13982C9.73785 5.07338 9.70252 5.01339 9.65048 4.97023C9.59844 4.92707 9.53296 4.90344 9.46535 4.90344C9.39774 4.90344 9.33225 4.92707 9.28021 4.97023C9.22817 5.01339 9.19285 5.07338 9.18035 5.13982C9.10087 5.42207 9.04073 5.7094 9.00035 5.99982C8.98539 6.11936 8.98539 6.24029 9.00035 6.35982V6.70982C9.00035 6.82982 9.13035 7.15982 9.20035 7.38982L8.12035 7.64982C8.04557 7.67062 7.98052 7.71712 7.93662 7.78113C7.89273 7.84514 7.8728 7.92258 7.88035 7.99982C7.88542 8.03965 7.8987 8.07799 7.91935 8.11242C7.94001 8.14685 7.96759 8.17661 8.00035 8.19982C8.00035 8.53316 7.98035 8.86649 7.94035 9.19982C7.94035 9.70982 7.94035 10.1998 7.99035 10.7198C8.04035 11.2398 7.94035 11.9498 7.94035 12.5698C7.93791 12.8694 7.97148 13.1682 8.04035 13.4598C8.07638 13.6173 8.16888 13.756 8.30035 13.8498C8.53172 13.9908 8.7911 14.0795 9.06035 14.1098C9.20018 14.1196 9.34052 14.1196 9.48035 14.1098C9.44781 14.2116 9.4211 14.3151 9.40035 14.4198C9.40035 14.5298 9.40035 14.6398 9.35035 14.7598C9.30035 14.8798 9.35035 14.9898 9.35035 15.1098C9.35035 15.3998 9.48035 15.6398 9.53035 15.9298C9.52621 15.9661 9.52946 16.0028 9.53992 16.0378C9.55038 16.0728 9.56782 16.1053 9.59119 16.1333C9.61455 16.1613 9.64336 16.1843 9.67588 16.2009C9.70839 16.2175 9.74393 16.2274 9.78035 16.2298C9.81715 16.234 9.85442 16.2308 9.88999 16.2204C9.92555 16.2101 9.95871 16.1928 9.98754 16.1695C10.0164 16.1463 10.0403 16.1176 10.058 16.085C10.0756 16.0524 10.0866 16.0167 10.0903 15.9798C10.2078 15.7143 10.3047 15.4402 10.3803 15.1598C10.3956 15.0437 10.3956 14.926 10.3803 14.8098C10.3902 14.69 10.3902 14.5696 10.3803 14.4498C10.3668 14.3084 10.3434 14.168 10.3103 14.0298L10.7003 13.9598C10.8907 13.9393 11.0783 13.8991 11.2603 13.8398ZM9.67035 13.0498C9.50035 13.0498 8.92035 13.1998 8.90035 13.0498C8.84035 12.4298 8.83035 11.2798 8.75035 10.6798C8.67035 10.0798 8.61035 9.67982 8.58035 9.20982C8.55865 8.87684 8.55865 8.5428 8.58035 8.20982L9.52035 8.04982C9.74298 8.02481 9.96771 8.02481 10.1903 8.04982C10.337 8.06044 10.4768 8.11635 10.5903 8.20982C10.6365 8.38979 10.6633 8.57417 10.6703 8.75982V9.35982V10.8698C10.6703 11.3798 10.7903 11.8698 10.7803 12.3598C10.7803 12.5798 10.7803 12.9398 10.6803 12.9398C10.5803 12.9398 10.0003 12.9998 9.67035 13.0498Z" fill="black"/>
<path d="M22.1002 7.8096C22.1002 7.3396 22.0502 6.8096 22.0002 6.3696C21.9772 6.03394 21.9338 5.69998 21.8702 5.3696C21.8323 5.13053 21.7823 4.89355 21.7202 4.6596C21.6816 4.55548 21.6277 4.45772 21.5602 4.3696C21.3523 4.15809 21.0827 4.01802 20.7902 3.9696C20.6177 3.94443 20.4426 3.94443 20.2702 3.9696C20.3247 3.72889 20.3648 3.48512 20.3902 3.2396C20.4051 3.11003 20.4051 2.97917 20.3902 2.8496C20.3902 2.7196 20.3902 2.5996 20.3402 2.4696C20.2802 2.1596 20.1702 1.8996 20.0902 1.5996C20.098 1.55771 20.0966 1.5146 20.0859 1.47333C20.0752 1.43206 20.0556 1.39366 20.0284 1.36085C20.0012 1.32804 19.967 1.30163 19.9285 1.2835C19.8899 1.26538 19.8478 1.25598 19.8052 1.25598C19.7625 1.25598 19.7204 1.26538 19.6818 1.2835C19.6433 1.30163 19.6092 1.32804 19.5819 1.36085C19.5547 1.39366 19.5351 1.43206 19.5244 1.47333C19.5137 1.5146 19.5123 1.55771 19.5202 1.5996C19.4243 1.8998 19.3541 2.20756 19.3102 2.5196C19.2901 2.64883 19.2901 2.78038 19.3102 2.9096C19.312 3.03778 19.3288 3.16531 19.3602 3.2896C19.4202 3.5596 19.5002 3.8196 19.5602 4.0896L18.4602 4.3696C18.3782 4.38869 18.3071 4.43926 18.2622 4.51037C18.2173 4.58149 18.2022 4.66743 18.2202 4.7496C18.232 4.82165 18.2714 4.88623 18.3302 4.9296C18.3302 5.2996 18.2802 5.6796 18.2702 6.0496C18.2702 6.6096 18.2702 7.1596 18.3202 7.7196C18.3702 8.2796 18.2602 9.0796 18.2602 9.7196C18.2622 10.0549 18.2923 10.3894 18.3502 10.7196C18.3749 10.8223 18.4205 10.9188 18.4842 11.0031C18.5479 11.0874 18.6282 11.1577 18.7202 11.2096C18.9283 11.3104 19.151 11.3779 19.3802 11.4096H19.8102C19.8102 11.5296 19.7502 11.6596 19.7302 11.7896C19.703 11.9147 19.6863 12.0418 19.6802 12.1696C19.6653 12.2958 19.6653 12.4234 19.6802 12.5496C19.6802 12.8696 19.8002 13.1396 19.8602 13.4496C19.856 13.4864 19.8592 13.5237 19.8695 13.5592C19.8799 13.5948 19.8972 13.628 19.9204 13.6568C19.9437 13.6856 19.9724 13.7096 20.005 13.7272C20.0376 13.7449 20.0733 13.7559 20.1102 13.7596C20.1855 13.7652 20.2601 13.7412 20.318 13.6926C20.3759 13.644 20.4125 13.5748 20.4202 13.4996C20.5202 13.1896 20.6502 12.9196 20.7202 12.5996C20.7301 12.4698 20.7301 12.3394 20.7202 12.2096C20.7301 12.0798 20.7301 11.9494 20.7202 11.8196C20.6999 11.648 20.6698 11.4777 20.6302 11.3096L21.0402 11.2296C21.2275 11.2004 21.4117 11.1535 21.5902 11.0896C21.6916 11.0358 21.7803 10.9607 21.8502 10.8696C22.0704 10.5549 22.1954 10.1834 22.2102 9.7996C22.2151 9.13462 22.1784 8.46998 22.1002 7.8096ZM21.1602 10.1296H20.8502C20.5778 10.2031 20.3004 10.2566 20.0202 10.2896C19.8574 10.3097 19.6929 10.3097 19.5302 10.2896H19.3302C19.2807 10.0723 19.2473 9.85175 19.2302 9.6296C19.1702 8.9496 19.2302 8.2296 19.1102 7.5696C18.9902 6.9096 19.0002 6.5696 18.9302 5.9996C18.9101 5.64322 18.9101 5.28599 18.9302 4.9296L19.8702 4.7396C20.0925 4.70942 20.3178 4.70942 20.5402 4.7396C20.6899 4.75302 20.8308 4.81642 20.9402 4.9196C20.9835 5.12715 21.0102 5.33781 21.0202 5.5496C21.0202 5.7696 21.0202 5.9896 21.0802 6.2196V7.8896C21.0802 8.4396 21.2002 8.8896 21.1902 9.5196C21.1902 9.7496 21.1402 10.0896 21.1602 10.1296Z" fill="black"/>
<path d="M16.0004 14.7305C16.0103 14.6107 16.0103 14.4903 16.0004 14.3705C16.0004 14.2305 15.9504 14.0905 15.9204 13.9605L16.3104 13.8805C16.4938 13.8632 16.6748 13.8263 16.8504 13.7705C16.9576 13.7212 17.053 13.6496 17.1304 13.5605C17.3722 13.2082 17.4949 12.7876 17.4804 12.3605C17.4489 11.6096 17.3314 10.8647 17.1304 10.1405C17.109 9.92002 17.0655 9.70225 17.0004 9.49051C16.9619 9.38202 16.9005 9.2831 16.8204 9.20051C16.5911 8.99815 16.3045 8.8723 16.0004 8.84051C15.8374 8.82543 15.6733 8.82543 15.5104 8.84051C15.5541 8.63903 15.5875 8.43543 15.6104 8.23051C15.6252 8.11767 15.6252 8.00335 15.6104 7.89051C15.6035 7.77265 15.5868 7.65557 15.5604 7.54051C15.5004 7.27051 15.3904 7.04051 15.3104 6.76051C15.312 6.72024 15.305 6.68009 15.2897 6.64279C15.2745 6.60549 15.2513 6.57193 15.2219 6.5444C15.1924 6.51686 15.1574 6.49601 15.1192 6.48326C15.081 6.47051 15.0404 6.46616 15.0004 6.47051C14.9261 6.47051 14.8549 6.50001 14.8024 6.55252C14.7499 6.60503 14.7204 6.67625 14.7204 6.75051C14.6304 7.02515 14.5603 7.30587 14.5104 7.59051C14.5001 7.70695 14.5001 7.82407 14.5104 7.94051C14.5007 8.05364 14.5007 8.16738 14.5104 8.28051C14.5604 8.52051 14.6404 8.73051 14.7004 8.96051L13.6204 9.22051C13.5379 9.23969 13.466 9.28983 13.4194 9.36056C13.3729 9.43129 13.3553 9.51719 13.3704 9.60051C13.3849 9.67152 13.4238 9.73521 13.4804 9.78051C13.4173 10.4853 13.3939 11.1931 13.4104 11.9005C13.4193 12.3929 13.4627 12.8842 13.5404 13.3705C13.581 13.5232 13.6727 13.6573 13.8004 13.7505C14.0274 13.8913 14.2843 13.9769 14.5504 14.0005C14.6868 14.0107 14.8239 14.0107 14.9604 14.0005C14.9278 14.1022 14.9011 14.2057 14.8804 14.3105C14.8804 14.4305 14.8804 14.5405 14.8304 14.6605C14.8154 14.7733 14.8154 14.8877 14.8304 15.0005C14.8304 15.2905 14.9504 15.5405 15.0104 15.8205C15.0046 15.8943 15.0272 15.9676 15.0737 16.0252C15.1202 16.0828 15.187 16.1205 15.2604 16.1305C15.2979 16.1346 15.336 16.1311 15.3721 16.1202C15.4083 16.1092 15.4419 16.091 15.4709 16.0667C15.4999 16.0424 15.5236 16.0125 15.5407 15.9788C15.5578 15.9451 15.5679 15.9082 15.5704 15.8705C15.6894 15.608 15.7897 15.3373 15.8704 15.0605C15.923 14.9544 15.9665 14.844 16.0004 14.7305ZM14.4804 12.9405C14.3695 12.4662 14.2893 11.9852 14.2404 11.5005C14.1738 10.9363 14.1404 10.3686 14.1404 9.80051L15.0804 9.65051C15.3027 9.62045 15.528 9.62045 15.7504 9.65051C15.8885 9.66438 16.02 9.71631 16.1304 9.80051C16.1304 10.0505 16.1804 10.2205 16.2004 10.3405C16.3017 10.9157 16.3651 11.497 16.3904 12.0805V12.8005C16.0097 12.8981 15.6218 12.965 15.2304 13.0005C15.0804 13.0005 14.5604 12.9305 14.4804 12.9405Z" fill="black"/>
</g>
<defs>
<clipPath id="clip0_1_5213">
<rect width="24" height="24" fill="white"/>
</clipPath>
</defs>
</svg>
